<svg width="19" height="19" viewBox="0 0 19 19" fill="none" xmlns="http://www.w3.org/2000/svg">
<path d="M8.60387 2.79225H2.68975C2.2416 2.79225 1.81181 2.97028 1.49492 3.28717C1.17803 3.60406 1 4.03385 1 4.482V16.3103C1 16.7584 1.17803 17.1882 1.49492 17.5051C1.81181 17.822 2.2416 18 2.68975 18H14.518C14.9661 18 15.3959 17.822 15.7128 17.5051C16.0297 17.1882 16.2077 16.7584 16.2077 16.3103V10.3961M14.9404 1.52494C15.2765 1.18883 15.7324 1 16.2077 1C16.6831 1 17.1389 1.18883 17.4751 1.52494C17.8112 1.86105 18 2.31692 18 2.79225C18 3.26758 17.8112 3.72345 17.4751 4.05956L9.44875 12.0859L6.06925 12.9308L6.91412 9.55125L14.9404 1.52494Z" stroke="#797979" stroke-width="1.5" stroke-linecap="round" stroke-linejoin="round"/>
</svg>
